<svg width="48" height="48" viewBox="0 0 48 48" fill="none" xmlns="http://www.w3.org/2000/svg">
<path d="M31 21.9999C32.6569 21.9999 34 20.6568 34 18.9999C34 17.3431 32.6569 15.9999 31 15.9999C29.3432 15.9999 28 17.3431 28 18.9999C28 20.6568 29.3432 21.9999 31 21.9999Z" fill="#303233"/>
<path d="M17 21.9999C18.6568 21.9999 20 20.6568 20 18.9999C20 17.3431 18.6568 15.9999 17 15.9999C15.3431 15.9999 14 17.3431 14 18.9999C14 20.6568 15.3431 21.9999 17 21.9999Z" fill="#303233"/>
<path d="M23.98 3.99992C12.94 3.99992 4.00005 12.9599 4.00005 23.9999C4.00005 35.0399 12.94 43.9999 23.98 43.9999C35.04 43.9999 44 35.0399 44 23.9999C44 12.9599 35.04 3.99992 23.98 3.99992ZM24 39.9999C15.16 39.9999 8.00005 32.8399 8.00005 23.9999C8.00005 15.1599 15.16 7.99992 24 7.99992C32.84 7.99992 40 15.1599 40 23.9999C40 32.8399 32.84 39.9999 24 39.9999ZM14 27.9999C15.56 32.6799 19.44 35.9999 24 35.9999C28.56 35.9999 32.44 32.6799 34 27.9999H14Z" fill="#303233"/>
</svg>
