<svg width="32" height="32" viewBox="0 0 32 32" fill="none" xmlns="http://www.w3.org/2000/svg">
<path fill-rule="evenodd" clip-rule="evenodd" d="M14.4755 11.1179C15.1663 10.1869 15.414 9.20577 14.6327 8.33973C12.8794 5.88643 11.7003 4.36931 10.9607 3.6387C9.55462 2.24972 7.24159 2.4376 6.02383 3.63751C5.36975 4.282 5.14832 4.50332 4.47673 5.18546C0.735859 8.92834 3.01723 16.8407 9.08196 22.9113C15.1453 28.9806 23.0569 31.2632 26.8056 27.5124C27.4253 26.915 27.95 26.39 28.3638 25.9526C29.5572 24.6913 29.7384 22.4803 28.356 21.0439C27.6472 20.3075 26.2005 19.1853 23.644 17.3566C22.861 16.6564 21.9326 16.8082 21.0815 17.3666C20.6721 17.6352 20.3741 17.9069 19.8115 18.4701L18.7898 19.4923C18.6553 19.6269 16.8281 18.7119 15.0544 16.9364C13.2797 15.16 12.3653 13.3327 12.4992 13.1988C12.7754 12.9226 13.1162 12.5817 13.5216 12.1759C13.7001 11.9972 13.7854 11.9107 13.8949 11.7957C14.1229 11.556 14.3117 11.3386 14.4755 11.1179ZM20.6744 21.3778L21.6963 20.3554C22.0059 20.0455 22.2066 19.8549 22.3698 19.7235C24.6094 21.3318 25.9064 22.343 26.4362 22.8935C26.7543 23.224 26.7048 23.8271 26.4283 24.1193C26.0457 24.5238 25.5485 25.0212 24.9384 25.6096C22.5144 28.0347 16.128 26.1922 10.9669 21.0261C5.8043 15.8583 3.96262 9.47098 6.36837 7.0639C7.03725 6.38456 7.24918 6.17274 7.89391 5.53746C8.13565 5.29926 8.79413 5.24578 9.08821 5.53627C9.65763 6.09877 10.7139 7.45124 12.2677 9.61569C12.1873 9.71556 12.0868 9.82842 11.9645 9.95691C11.8748 10.0512 11.8001 10.127 11.6366 10.2906C11.2315 10.6961 10.8911 11.0367 10.6153 11.3125C8.87772 13.0499 10.3575 16.0069 13.1694 18.8216C15.9794 21.6343 18.9375 23.1157 20.6744 21.3778Z" fill="white"/>
</svg>
