<svg width="32" height="32" viewBox="0 0 32 32" fill="none" xmlns="http://www.w3.org/2000/svg">
<path fill-rule="evenodd" clip-rule="evenodd" d="M14.4755 11.1174C15.1663 10.1864 15.414 9.20528 14.6327 8.33924C12.8794 5.88594 11.7003 4.36882 10.9607 3.63821C9.55464 2.24923 7.24161 2.43712 6.02384 3.63703C5.36977 4.28151 5.14834 4.50283 4.47674 5.18497C0.735876 8.92785 3.01725 16.8402 9.08198 22.9108C15.1453 28.9802 23.0569 31.2628 26.8056 27.512C27.4253 26.9145 27.95 26.3895 28.3639 25.9521C29.5572 24.6908 29.7384 22.4798 28.356 21.0434C27.6473 20.307 26.2006 19.1848 23.644 17.3561C22.861 16.6559 21.9327 16.8077 21.0815 17.3661C20.6721 17.6347 20.3741 17.9064 19.8115 18.4696L18.7899 19.4918C18.6553 19.6264 16.8281 18.7114 15.0544 16.9359C13.2797 15.1595 12.3653 13.3322 12.4993 13.1983C12.7754 12.9222 13.1162 12.5812 13.5216 12.1754C13.7001 11.9967 13.7855 11.9102 13.8949 11.7952C14.1229 11.5556 14.3117 11.3381 14.4755 11.1174ZM20.6744 21.3774L21.6963 20.3549C22.0059 20.045 22.2066 19.8544 22.3699 19.723C24.6094 21.3313 25.9064 22.3426 26.4362 22.893C26.7543 23.2235 26.7049 23.8266 26.4284 24.1188C26.0457 24.5233 25.5485 25.0207 24.9384 25.6092C22.5144 28.0342 16.128 26.1917 10.967 21.0256C5.80432 15.8579 3.96263 9.47049 6.36838 7.06341C7.03727 6.38407 7.24919 6.17225 7.89393 5.53697C8.13567 5.29878 8.79415 5.24529 9.08822 5.53579C9.65765 6.09828 10.7139 7.45075 12.2677 9.61521C12.1873 9.71507 12.0868 9.82793 11.9646 9.95642C11.8748 10.0507 11.8001 10.1265 11.6366 10.2901C11.2316 10.6956 10.8911 11.0362 10.6153 11.312C8.87774 13.0494 10.3575 16.0064 13.1694 18.8211C15.9794 21.6339 18.9375 23.1153 20.6744 21.3774Z" fill="#303233"/>
</svg>
