<svg width="626" height="519" viewBox="0 0 626 519" fill="none" xmlns="http://www.w3.org/2000/svg">
<g clip-path="url(#clip0)">
<path d="M0 9.99999C0 4.47714 4.47715 0 10 0H616C621.523 0 626 4.47715 626 10V509C626 514.523 621.523 519 616 519H10C4.47717 519 0 514.523 0 509V9.99999Z" fill="#010C5C"/>
<path opacity="0.5" d="M457.455 484.794V389.844C457.455 374.182 448.234 358.64 439.306 343.273C436.099 337.726 425.849 319.827 414.062 299.208V268.594L414.463 269.264V268.5C425.675 287.07 453.218 332.81 458.564 341.746C468.039 357.703 477.54 366.692 477.54 415.434V499.973C477.407 499.88 463.281 489.336 457.495 484.794H457.455ZM435.658 467.256L435.257 466.935V467.363C412.472 449.008 414.102 427.719 414.102 403.054V343.112L414.503 343.755V343.019C415.398 344.466 416.147 345.631 416.681 346.462C423.925 357.488 435.658 371.395 435.658 420.15V467.256ZM204.075 60.3793L204.075 414.549C204.075 451.072 219.016 461.991 228.919 470.927C238.821 479.863 399.108 601.046 426.464 622.027C446.991 637.81 457.014 641.132 463.816 641.802C463.388 641.802 462.974 641.883 462.479 641.883H464.765C466.622 642.017 468.239 641.963 469.789 641.963L469.99 641.883H483.247C483.247 641.883 499.751 644.951 499.751 612.407L499.751 385.047C499.751 369.372 490.517 353.831 481.603 338.463C474.173 325.668 429.257 246.957 414.436 220.952V186.117C437.903 228.722 495.101 332.743 500.446 341.746C510.068 358.011 519.423 366.692 519.423 415.434V614.31C519.423 630.883 516.082 641.923 504.402 641.923H525.156C525.156 641.923 541.66 644.991 541.66 612.448V385.047C541.66 369.372 532.426 353.831 523.512 338.463C516.282 325.936 441.725 188.609 414.463 138.368V107.084C450.171 171.889 538.747 332.716 544.173 341.759C553.795 358.024 563.136 366.706 563.136 415.447V614.31C563.136 630.883 559.795 641.923 548.115 641.923H568.883C568.883 641.923 585.374 644.991 585.374 612.448V385.047C585.374 369.372 576.153 353.831 567.226 338.463C559.982 325.936 453.993 131.803 414.463 59.3209V49.9425C414.463 44.2618 414.543 39.0635 414.69 34.2537C448.1 94.892 578.932 331.818 584.786 341.706C594.408 357.971 603.762 366.652 603.762 415.393V614.31C603.762 630.883 600.422 641.923 588.741 641.923H609.496C609.496 641.923 626 644.991 626 612.448V385.047C626 369.372 616.766 353.831 607.852 338.463C600.796 326.312 479.251 104.364 428.776 12.0402L391.076 12.0402C387.548 33.9322 388.403 51.5636 388.403 59.8434V414.013C388.403 450.536 403.344 461.455 413.247 470.391C417.136 473.915 444.305 494.788 477.487 520.11L477.487 535.223L477.086 534.915C437.369 504.127 399.95 475.174 390.194 467.363C367.288 448.995 368.919 427.666 368.919 402.974V49.9425C368.799 37.2735 369.365 24.6074 370.616 12L345.545 12C342.004 33.8919 342.873 51.5234 342.873 59.8032V414.013C342.873 450.536 357.827 461.455 367.716 470.391C373.316 475.442 426.972 516.359 477.5 554.797V572.455L477.1 572.147C424.299 531.418 355.635 478.363 341.897 467.336C318.978 448.968 320.622 427.639 320.622 402.947V49.9425C320.505 37.2739 321.067 24.6082 322.306 12L297.315 12C293.787 33.8919 294.642 51.5234 294.642 59.8032V414.013C294.642 450.536 309.583 461.455 319.486 470.391C326.983 477.157 420.57 548.179 477.527 591.453V607.611L477.126 607.303C431.836 572.469 314.782 482.128 296.366 467.363C273.447 448.995 275.091 427.666 275.091 402.974V49.9425C274.968 37.2738 275.53 24.6077 276.775 12L251.717 12C248.189 33.8919 249.045 51.5234 249.045 59.8032L249.045 414.013C249.045 450.536 263.986 461.455 273.888 470.391C283.791 479.327 444.077 600.51 471.42 621.531C473.451 623.099 475.215 624.398 476.765 625.551C475.99 630.816 474.52 635.009 472.061 637.85L471.861 637.689C446.657 618.383 272.525 484.955 251.276 467.913C228.357 449.544 230.001 428.215 230.001 403.523L230.001 50.5186C229.898 37.6683 230.509 24.8223 231.832 12.0402L206.788 12.0402C203.153 34.1867 204.115 52.0325 204.115 60.3793" fill="white" fill-opacity="0.3"/>
</g>
<defs>
<clipPath id="clip0">
<path d="M0 9.99999C0 4.47714 4.47715 0 10 0H616C621.523 0 626 4.47715 626 10V509C626 514.523 621.523 519 616 519H10C4.47717 519 0 514.523 0 509V9.99999Z" fill="white"/>
</clipPath>
</defs>
</svg>
