<svg width="30" height="30" viewBox="0 0 30 30" fill="none" xmlns="http://www.w3.org/2000/svg">
<g clip-path="url(#clip0)">
<circle cx="15.0294" cy="15.0294" r="15.0294" fill="#E52328"/>
<path d="M21.5711 12.2619C21.5403 11.5631 21.4273 11.0827 21.2654 10.6665C21.0984 10.2246 20.8414 9.82903 20.5048 9.50018C20.1759 9.16621 19.7776 8.9067 19.3408 8.74232C18.922 8.58046 18.4441 8.46746 17.7452 8.43665C17.0411 8.40323 16.8176 8.39551 15.0318 8.39551C13.246 8.39551 13.0224 8.40323 12.3209 8.43404C11.6221 8.46485 11.1416 8.57795 10.7253 8.73971C10.2833 8.9067 9.88765 9.1636 9.55874 9.50018C9.22471 9.82903 8.96525 10.2272 8.80074 10.664C8.63884 11.0827 8.52582 11.5605 8.49501 12.2592C8.46159 12.9632 8.45386 13.1867 8.45386 14.9722C8.45386 16.7576 8.46159 16.9811 8.4924 17.6825C8.52321 18.3812 8.63633 18.8616 8.79823 19.2778C8.96525 19.7197 9.22471 20.1153 9.55874 20.4441C9.88765 20.7781 10.2859 21.0376 10.7227 21.202C11.1416 21.3639 11.6195 21.4769 12.3184 21.5077C13.0198 21.5386 13.2435 21.5462 15.0293 21.5462C16.815 21.5462 17.0386 21.5386 17.7401 21.5077C18.4389 21.4769 18.9194 21.3639 19.3357 21.202C20.2196 20.8603 20.9185 20.1615 21.2603 19.2778C21.4221 18.8591 21.5352 18.3812 21.566 17.6825C21.5968 16.9811 21.6045 16.7576 21.6045 14.9722C21.6045 13.1867 21.6019 12.9632 21.5711 12.2619ZM20.3866 17.6311C20.3583 18.2733 20.2504 18.6201 20.1605 18.8514C19.9395 19.4243 19.4847 19.879 18.9117 20.0999C18.6804 20.1898 18.331 20.2977 17.6912 20.3259C16.9974 20.3568 16.7894 20.3645 15.0344 20.3645C13.2794 20.3645 13.0687 20.3568 12.3775 20.3259C11.7351 20.2977 11.3882 20.1898 11.1569 20.0999C10.8718 19.9946 10.6122 19.8276 10.4016 19.6092C10.1831 19.396 10.0161 19.1391 9.91074 18.854C9.82081 18.6228 9.71291 18.2733 9.6847 17.6337C9.65379 16.9401 9.64616 16.7319 9.64616 14.9773C9.64616 13.2226 9.65379 13.012 9.6847 12.321C9.71291 11.6787 9.82081 11.3319 9.91074 11.1007C10.0161 10.8155 10.1831 10.5561 10.4042 10.3453C10.6174 10.127 10.8743 9.95999 11.1596 9.85472C11.3908 9.76481 11.7403 9.65693 12.3801 9.62863C13.0738 9.59782 13.282 9.59009 15.0369 9.59009C16.7945 9.59009 17.0025 9.59782 17.6938 9.62863C18.3362 9.65693 18.6831 9.76481 18.9143 9.85472C19.1995 9.95999 19.459 10.127 19.6697 10.3453C19.8881 10.5586 20.0551 10.8155 20.1605 11.1007C20.2504 11.3319 20.3583 11.6812 20.3866 12.321C20.4175 13.0146 20.4252 13.2226 20.4252 14.9773C20.4252 16.7319 20.4175 16.9374 20.3866 17.6311Z" fill="white"/>
<path d="M15.0586 11.6245C13.1949 11.6245 11.6829 13.1365 11.6829 15.0002C11.6829 16.864 13.1949 18.376 15.0586 18.376C16.9223 18.376 18.4343 16.864 18.4343 15.0002C18.4343 13.1365 16.9223 11.6245 15.0586 11.6245ZM15.0586 17.19C13.8496 17.19 12.8688 16.2094 12.8688 15.0002C12.8688 13.7911 13.8496 12.8105 15.0586 12.8105C16.2677 12.8105 17.2484 13.7911 17.2484 15.0002C17.2484 16.2094 16.2677 17.19 15.0586 17.19Z" fill="white"/>
<path d="M19.3736 11.4776C19.3736 11.9153 19.0188 12.2702 18.581 12.2702C18.1434 12.2702 17.7885 11.9153 17.7885 11.4776C17.7885 11.0398 18.1434 10.6851 18.581 10.6851C19.0188 10.6851 19.3736 11.0398 19.3736 11.4776Z" fill="white"/>
</g>
<defs>
<clipPath id="clip0">
<rect width="30" height="30" fill="white"/>
</clipPath>
</defs>
</svg>
