<svg width="30" height="30" viewBox="0 0 30 30" fill="none" xmlns="http://www.w3.org/2000/svg">
<g clip-path="url(#clip0)">
<circle cx="15.0294" cy="15.0294" r="15.0294" fill="#F93A04"/>
<path d="M21.5711 12.2609C21.5403 11.5621 21.4273 11.0817 21.2654 10.6655C21.0984 10.2236 20.8414 9.82806 20.5048 9.4992C20.1759 9.16523 19.7776 8.90572 19.3408 8.74135C18.922 8.57948 18.4441 8.46648 17.7452 8.43568C17.0411 8.40226 16.8176 8.39453 15.0318 8.39453C13.246 8.39453 13.0224 8.40226 12.3209 8.43307C11.6221 8.46387 11.1416 8.57697 10.7253 8.73874C10.2833 8.90572 9.88765 9.16262 9.55874 9.4992C9.22471 9.82806 8.96525 10.2263 8.80074 10.663C8.63884 11.0817 8.52582 11.5595 8.49501 12.2583C8.46159 12.9622 8.45386 13.1857 8.45386 14.9712C8.45386 16.7566 8.46159 16.9801 8.4924 17.6815C8.52321 18.3802 8.63633 18.8606 8.79823 19.2769C8.96525 19.7187 9.22471 20.1143 9.55874 20.4432C9.88765 20.7771 10.2859 21.0366 10.7227 21.201C11.1416 21.3629 11.6195 21.4759 12.3184 21.5067C13.0198 21.5376 13.2435 21.5452 15.0293 21.5452C16.815 21.5452 17.0386 21.5376 17.7401 21.5067C18.4389 21.4759 18.9194 21.3629 19.3357 21.201C20.2196 20.8593 20.9185 20.1606 21.2603 19.2769C21.4221 18.8581 21.5352 18.3802 21.566 17.6815C21.5968 16.9801 21.6045 16.7566 21.6045 14.9712C21.6045 13.1857 21.6019 12.9622 21.5711 12.2609ZM20.3866 17.6301C20.3583 18.2724 20.2504 18.6192 20.1605 18.8504C19.9395 19.4233 19.4847 19.878 18.9117 20.099C18.6804 20.1889 18.331 20.2967 17.6912 20.3249C16.9974 20.3559 16.7894 20.3635 15.0344 20.3635C13.2794 20.3635 13.0687 20.3559 12.3775 20.3249C11.7351 20.2967 11.3882 20.1889 11.1569 20.099C10.8718 19.9936 10.6122 19.8266 10.4016 19.6082C10.1831 19.395 10.0161 19.1381 9.91074 18.853C9.82081 18.6218 9.71291 18.2724 9.6847 17.6327C9.65379 16.9391 9.64616 16.7309 9.64616 14.9763C9.64616 13.2216 9.65379 13.011 9.6847 12.32C9.71291 11.6777 9.82081 11.3309 9.91074 11.0997C10.0161 10.8145 10.1831 10.5551 10.4042 10.3444C10.6174 10.126 10.8743 9.95901 11.1596 9.85375C11.3908 9.76383 11.7403 9.65595 12.3801 9.62765C13.0738 9.59685 13.282 9.58912 15.0369 9.58912C16.7945 9.58912 17.0025 9.59685 17.6938 9.62765C18.3362 9.65595 18.6831 9.76383 18.9143 9.85375C19.1995 9.95901 19.459 10.126 19.6697 10.3444C19.8881 10.5576 20.0551 10.8145 20.1605 11.0997C20.2504 11.3309 20.3583 11.6802 20.3866 12.32C20.4175 13.0136 20.4252 13.2216 20.4252 14.9763C20.4252 16.7309 20.4175 16.9365 20.3866 17.6301Z" fill="white"/>
<path d="M15.0586 11.623C13.195 11.623 11.6829 13.135 11.6829 14.9988C11.6829 16.8625 13.195 18.3745 15.0586 18.3745C16.9224 18.3745 18.4344 16.8625 18.4344 14.9988C18.4344 13.135 16.9224 11.623 15.0586 11.623ZM15.0586 17.1885C13.8496 17.1885 12.8689 16.2079 12.8689 14.9988C12.8689 13.7896 13.8496 12.809 15.0586 12.809C16.2678 12.809 17.2484 13.7896 17.2484 14.9988C17.2484 16.2079 16.2678 17.1885 15.0586 17.1885Z" fill="white"/>
<path d="M19.3736 11.4762C19.3736 11.9138 19.0188 12.2687 18.581 12.2687C18.1434 12.2687 17.7885 11.9138 17.7885 11.4762C17.7885 11.0384 18.1434 10.6836 18.581 10.6836C19.0188 10.6836 19.3736 11.0384 19.3736 11.4762Z" fill="white"/>
</g>
<defs>
<clipPath id="clip0">
<rect width="30" height="30" fill="white"/>
</clipPath>
</defs>
</svg>
