<svg width="32" height="24" viewBox="0 0 32 24" fill="none" xmlns="http://www.w3.org/2000/svg">
<path d="M4.78151 10.1215C5.31765 10.1224 5.84201 9.9648 6.28824 9.66868C6.73447 9.37255 7.08252 8.95119 7.28832 8.45792C7.49413 7.96464 7.54846 7.42162 7.44442 6.89757C7.34039 6.37352 7.08267 5.892 6.70389 5.51394C6.3251 5.13588 5.84227 4.87827 5.3165 4.77372C4.79073 4.66916 4.24564 4.72236 3.75022 4.92658C3.2548 5.1308 2.83132 5.47686 2.53336 5.92097C2.2354 6.36508 2.07636 6.88727 2.07635 7.42148C2.07635 8.13676 2.36121 8.82281 2.86839 9.32902C3.37558 9.83524 4.06363 10.1202 4.78151 10.1215Z" fill="white"/>
<path d="M0.000962885 10.6154H0.0704445L3.70665 11.8569V21.2307C3.70665 22.5368 4.00774 22.823 4.63307 22.9614V23.0261H1.59904C1.38205 23.0195 1.1685 22.9703 0.970631 22.8813C0.772763 22.7923 0.594477 22.6653 0.446002 22.5075C0.297526 22.3497 0.181782 22.1642 0.105411 21.9618C0.0290405 21.7593 -0.00645449 21.5438 0.000962885 21.3276" fill="#97B6CB"/>
<path d="M26.4818 21.2306H26.403L22.7483 19.0753V3.6369C22.7483 2.25229 22.8039 0.761534 22.1461 0.101538L22.2341 0L25.5044 2.01691C26.4308 2.63075 26.4864 3.89998 26.4864 5.03535" fill="#97B6CB"/>
<path d="M31.3194 24H31.25L27.5999 21.84V6.41089C27.5999 5.02629 27.6554 3.53553 26.9977 2.87553L27.0672 2.76938L30.3328 4.78629C31.2592 5.40013 31.3194 6.66935 31.3194 7.80473" fill="#97B6CB"/>
<path d="M20.3822 0.101538L20.3267 0L17.0564 2.01691C16.13 2.63075 16.0697 3.89997 16.0697 5.03535V12.4938C16.0697 13.8784 15.8011 14.7599 14.87 15.6414L8.75564 21.1014C8.56848 21.2614 8.44792 21.4852 8.4175 21.7291H8.33875V20.3076C8.33875 20.3076 12.591 16.6153 13.6194 15.5445C14.7774 14.3861 14.9441 13.1722 14.9441 11.4322V6.41073C14.9441 5.02612 14.8886 3.53536 15.5463 2.87537L15.4907 2.76921L12.2205 4.78612C11.294 5.39997 11.2385 6.66919 11.2385 7.80456V13.0891C11.2385 14.3953 10.9374 14.9353 10.312 15.5214L8.73711 16.8599C8.55641 17.0199 8.43964 17.2395 8.40823 17.4783H8.33875V13.4676L4.90172 12.2307H4.83224V21.3229C4.8242 21.5395 4.85923 21.7555 4.93532 21.9585C5.01141 22.1615 5.12705 22.3475 5.27559 22.5058C5.42413 22.6641 5.60263 22.7916 5.8008 22.8809C5.99898 22.9701 6.21293 23.0195 6.43032 23.026H8.33875C9.32507 22.9638 10.2688 22.6031 11.0439 21.9922C11.8916 21.3922 17.4594 16.6384 18.3348 15.7937C18.8315 15.3594 19.2229 14.8185 19.4797 14.2118C19.7364 13.6051 19.8518 12.9482 19.8171 12.2907V3.6369C19.8171 2.25229 19.7615 0.761533 20.4147 0.101538" fill="#97B6CB"/>
</svg>
