<svg width="332" height="104" viewBox="0 0 332 104" fill="none" xmlns="http://www.w3.org/2000/svg">
<g clip-path="url(#clip0)">
<path d="M285.143 56.3682L295.414 29.5334C294.708 33.7811 294.413 38.0868 294.533 42.3909V56.3882H301.1V19.3753H293.512L283.261 46.2901C283.973 41.9691 284.268 37.5899 284.142 33.2127V19.3753H277.576V56.3682H285.143ZM258.356 25.0142V56.3682H265.403V25.0142H274.112V19.3753H249.647V25.0142H258.356ZM234.812 56.3682L241.519 39.9914V56.4682H247.665V28.4736H241.659L234.912 45.1504V28.4136H228.746V56.4082L234.812 56.3682ZM199.996 48.6897C200.207 49.8496 200.563 50.9783 201.057 52.049C201.534 53.0867 202.215 54.0182 203.059 54.7885C204.038 55.5844 205.159 56.1883 206.363 56.5682C207.894 57.032 209.488 57.2546 211.088 57.228C218.562 57.228 222.292 53.0822 222.279 44.7904V43.2107H215.252V45.2104C215.392 46.9204 215.038 48.6347 214.231 50.1494C213.827 50.6019 213.332 50.964 212.778 51.2119C212.224 51.4599 211.624 51.588 211.017 51.588C210.411 51.588 209.811 51.4599 209.257 51.2119C208.703 50.964 208.208 50.6019 207.804 50.1494C207.017 48.6141 206.677 46.889 206.823 45.1704V30.5732C206.686 28.8977 207.033 27.2181 207.824 25.7341C208.205 25.2428 208.704 24.8552 209.274 24.607C209.844 24.3589 210.468 24.2583 211.088 24.3144C211.696 24.2589 212.309 24.3581 212.869 24.6028C213.429 24.8476 213.918 25.2299 214.291 25.7141C215.058 27.2128 215.391 28.8957 215.252 30.5732V31.393H222.279V29.5334C222.366 28.0746 222.156 26.6133 221.66 25.2383C221.165 23.8633 220.394 22.6033 219.396 21.5349C216.978 19.6491 213.985 18.6482 210.918 18.6991C207.85 18.7501 204.893 19.8498 202.539 21.8149C200.409 24.5333 199.38 27.9521 199.656 31.393V44.8504C199.646 46.1231 199.746 47.3943 199.956 48.6497L199.996 48.6897ZM166.382 56.3682V22.9346L173.389 56.3682H178.294L185.281 22.8547H185.481V56.3682H192.188V19.3753H180.977L176.052 43.3707L171.107 19.3753H159.895V56.3682H166.382Z" fill="white"/>
<path d="M319.363 99.8201L322.426 92.8015C322.571 92.429 322.665 92.039 322.707 91.6417C322.637 92.0253 322.59 92.4125 322.566 92.8015V99.8201H323.888V90.5619H322.326L319.243 97.6006C319.243 97.7805 319.103 98.1605 318.983 98.7204C319.07 98.3533 319.117 97.9778 319.123 97.6006V90.5619H317.802V99.8201H319.363ZM310.794 99.8201L313.857 92.8015C313.992 92.4259 314.086 92.0372 314.138 91.6417C314.058 92.0237 314.012 92.4116 313.998 92.8015V99.8201H315.319V90.5619H313.717L310.634 97.6006C310.523 97.9678 310.436 98.3418 310.374 98.7204C310.452 98.3516 310.499 97.9771 310.514 97.6006V90.5619H309.173V99.8201H310.794ZM302.165 94.3212C302.165 94.0812 302.165 93.8013 302.165 93.5014C302.195 93.2288 302.256 92.9605 302.346 92.7015C302.426 92.4729 302.526 92.2521 302.646 92.0416C302.771 91.8485 302.943 91.6903 303.147 91.5817C303.357 91.4749 303.591 91.4201 303.827 91.4218C305.048 91.4218 305.649 92.6415 305.649 95.0411C305.683 95.6005 305.683 96.1614 305.649 96.7207C305.599 97.138 305.498 97.5476 305.349 97.9405C305.242 98.2438 305.046 98.5083 304.788 98.7004C304.538 98.8805 304.235 98.972 303.927 98.9603C303.714 98.9648 303.503 98.9239 303.307 98.8403C303.129 98.7744 302.97 98.6643 302.846 98.5204C302.708 98.3761 302.599 98.2063 302.526 98.0205C302.444 97.8258 302.377 97.6253 302.326 97.4206C302.326 97.2207 302.286 96.9807 302.206 96.7007C302.206 96.4208 302.206 96.1609 302.206 95.9409C302.206 95.7209 302.206 95.481 302.206 95.181C302.206 94.8811 302.206 94.5812 302.206 94.3212H302.165ZM302.206 103.06V98.8603C302.436 99.2162 302.735 99.5223 303.086 99.7602C303.416 99.9839 303.809 100.096 304.208 100.08C304.717 100.092 305.219 99.9526 305.649 99.6802C306.061 99.4241 306.382 99.0468 306.57 98.6004C306.792 98.0961 306.947 97.565 307.031 97.0207C307.134 96.3593 307.181 95.6904 307.171 95.0211C307.171 91.8817 306.15 90.302 304.128 90.302C303.747 90.3005 303.375 90.4195 303.066 90.6419C302.703 90.8692 302.411 91.1951 302.226 91.5817V90.5419H300.904V103.04L302.206 103.06ZM295.699 91.6617V99.8201H297.02V91.6617H299.443V90.5619H293.276V91.6617H295.699ZM286.289 96.3408C286.312 96.6627 286.352 96.9831 286.409 97.3006C286.461 97.6075 286.541 97.9089 286.65 98.2005C286.744 98.4687 286.872 98.724 287.03 98.9603C287.186 99.1931 287.383 99.3963 287.611 99.5602C287.862 99.7298 288.139 99.8581 288.431 99.9401C288.778 100.033 289.134 100.08 289.493 100.08C289.945 100.092 290.393 99.9889 290.794 99.7802C291.153 99.5961 291.457 99.3201 291.675 98.9803C291.884 98.6397 292.04 98.2687 292.135 97.8805C292.241 97.4622 292.295 97.0323 292.295 96.6008H291.034C291.047 96.7605 291.047 96.9209 291.034 97.0807C291.051 97.2402 291.051 97.4011 291.034 97.5606C291.021 97.7132 290.98 97.8622 290.914 98.0005C290.872 98.1385 290.804 98.2673 290.714 98.3804C290.648 98.5084 290.552 98.6182 290.434 98.7004C290.314 98.7876 290.178 98.8489 290.033 98.8803C289.861 98.9138 289.684 98.9138 289.513 98.8803C289.263 98.8838 289.016 98.829 288.792 98.7204C288.589 98.6118 288.417 98.4536 288.291 98.2604C288.175 98.062 288.075 97.8547 287.991 97.6406C287.899 97.3831 287.845 97.1137 287.831 96.8407C287.831 96.5208 287.831 96.2608 287.831 96.0409V95.241C287.831 94.8811 287.831 94.5612 287.831 94.2812C287.831 94.0013 287.831 93.7013 287.831 93.3814C287.878 93.1017 287.952 92.8272 288.051 92.5615C288.104 92.3581 288.185 92.163 288.291 91.9817C288.404 91.7907 288.572 91.6376 288.772 91.5417C288.983 91.437 289.216 91.3823 289.452 91.3818C289.724 91.3747 289.993 91.4366 290.233 91.5617C290.438 91.6608 290.606 91.8217 290.714 92.0216C290.829 92.2221 290.917 92.4374 290.974 92.6615C290.995 92.9144 290.995 93.1685 290.974 93.4214H292.295C292.322 92.6047 292.06 91.8048 291.555 91.1618C291.306 90.8778 290.997 90.6518 290.651 90.4998C290.306 90.3477 289.93 90.2734 289.553 90.282C287.41 90.282 286.329 91.9417 286.329 95.281C286.329 95.661 286.329 96.0009 286.329 96.3008L286.289 96.3408ZM281.284 99.9801C281.284 100.28 281.104 100.52 281.024 100.74C280.94 100.945 280.833 101.14 280.704 101.32C280.596 101.498 280.443 101.644 280.26 101.742C280.077 101.841 279.87 101.888 279.662 101.88C279.324 101.876 278.989 101.801 278.681 101.66V102.82C278.984 102.926 279.302 102.98 279.622 102.98H280.203L280.664 102.84C280.808 102.779 280.943 102.698 281.064 102.6C281.19 102.515 281.305 102.414 281.404 102.3C281.512 102.177 281.606 102.043 281.685 101.9L281.905 101.48C281.993 101.327 282.067 101.167 282.125 101C282.172 100.823 282.233 100.649 282.305 100.48L282.465 99.9201L285.348 90.6019H283.967L281.965 98.0005L279.783 90.6019H278.281L281.284 99.9801ZM272.815 96.6008C272.972 95.8512 273.046 95.0868 273.036 94.3212V91.6617H275.518V98.7204H272.015C272.342 98.0379 272.61 97.3288 272.815 96.6008ZM269.872 102.34H271.054V99.8201H276.519V102.34H277.761V98.7204H276.86V90.5619H271.734V93.6213C271.76 94.5397 271.686 95.4582 271.514 96.3608C271.316 97.1741 271.034 97.9649 270.673 98.7204H269.872V102.34ZM263.706 99.8201V95.501H266.99V99.8201H268.271V90.5619H266.949V94.4012H263.666V90.5619H262.345V99.8201H263.706ZM255.418 99.8201L258.481 92.8015C258.635 92.4322 258.73 92.0407 258.761 91.6417C258.692 92.0253 258.645 92.4125 258.621 92.8015V99.8201H259.942V90.5619H258.341L255.278 97.6006C255.157 97.9665 255.063 98.3407 254.997 98.7204C255.085 98.3533 255.132 97.9778 255.137 97.6006V90.5619H253.816V99.8201H255.418ZM242.705 89.1022C243.092 89.4546 243.602 89.6413 244.126 89.6221C244.684 89.6533 245.234 89.475 245.668 89.1222C245.876 88.9198 246.04 88.677 246.15 88.4087C246.26 88.1404 246.314 87.8524 246.308 87.5625H245.608C245.565 87.9071 245.402 88.2257 245.147 88.4623C244.867 88.6423 244.539 88.7329 244.206 88.7223C243.862 88.7561 243.518 88.6535 243.248 88.4366C242.979 88.2197 242.805 87.9059 242.765 87.5625H242.084C242.08 87.8475 242.132 88.1305 242.239 88.3949C242.345 88.6593 242.504 88.8998 242.705 89.1022ZM242.705 99.8201L245.768 92.8015C245.912 92.429 246.006 92.039 246.048 91.6417C245.969 92.0237 245.922 92.4116 245.908 92.8015V99.8201H247.229V90.5619H245.628L242.544 97.6006C242.433 97.9678 242.346 98.3418 242.284 98.7204C242.362 98.3516 242.409 97.9771 242.424 97.6006V90.5619H241.103V99.8201H242.705ZM234.236 92.3016C234.386 92.0352 234.604 91.8135 234.867 91.6591C235.131 91.5048 235.432 91.4234 235.738 91.4234C236.043 91.4234 236.344 91.5048 236.608 91.6591C236.871 91.8135 237.089 92.0352 237.239 92.3016C237.596 93.2593 237.746 94.2814 237.679 95.301C237.714 95.8003 237.714 96.3014 237.679 96.8007C237.627 97.1916 237.526 97.5745 237.379 97.9405C237.265 98.251 237.054 98.5171 236.779 98.7004C236.493 98.8843 236.157 98.9751 235.818 98.9603C235.485 98.9723 235.156 98.8815 234.877 98.7004C234.592 98.5339 234.368 98.282 234.236 97.9805C234.089 97.6145 233.988 97.2316 233.936 96.8407C233.902 96.3414 233.902 95.8403 233.936 95.341C233.869 94.3214 234.02 93.2993 234.376 92.3416L234.236 92.3016ZM232.714 97.1607C232.786 97.654 232.935 98.1331 233.155 98.5804C233.326 98.9243 233.564 99.2303 233.856 99.4802C234.119 99.7013 234.426 99.8648 234.757 99.9601C235.12 100.068 235.498 100.122 235.878 100.12C236.349 100.132 236.819 100.051 237.259 99.8801C237.672 99.7117 238.031 99.4354 238.3 99.0803C238.64 98.632 238.872 98.1122 238.981 97.5606C239.137 96.7907 239.211 96.0065 239.201 95.221C239.201 91.9816 238.1 90.362 235.878 90.362C233.655 90.362 232.554 91.9817 232.554 95.201C232.548 95.871 232.602 96.5402 232.714 97.2007V97.1607ZM226.848 99.9001V96.5208L227.849 95.201L230.172 99.8201H231.713L228.75 94.1612L231.613 90.5619H230.052L226.848 94.8811V90.5619H225.527V99.8201L226.848 99.9001ZM217.679 96.4208C217.702 96.7427 217.742 97.0631 217.799 97.3806C217.854 97.6849 217.927 97.9854 218.019 98.2804C218.129 98.5456 218.263 98.7999 218.42 99.0403C218.576 99.2731 218.773 99.4763 219 99.6402C219.247 99.8062 219.517 99.9343 219.801 100.02C220.154 100.111 220.518 100.158 220.882 100.16C221.334 100.17 221.782 100.066 222.184 99.8601C222.543 99.6761 222.847 99.4001 223.065 99.0603C223.274 98.7197 223.429 98.3487 223.525 97.9605C223.624 97.5413 223.671 97.1115 223.665 96.6807H222.224C222.236 96.8405 222.236 97.0009 222.224 97.1607C222.224 97.3006 222.224 97.4606 222.224 97.6406C222.191 97.7892 222.151 97.936 222.104 98.0805C222.053 98.2149 221.986 98.3425 221.903 98.4604C221.831 98.584 221.736 98.6926 221.623 98.7804C221.504 98.8676 221.367 98.9289 221.223 98.9603C221.051 98.9923 220.874 98.9923 220.702 98.9603C220.453 98.9638 220.206 98.909 219.981 98.8003C219.774 98.6975 219.601 98.538 219.481 98.3404C219.365 98.142 219.264 97.9347 219.181 97.7206C219.089 97.4631 219.035 97.1937 219.02 96.9207C219.02 96.6008 219.02 96.3408 219.02 96.1209C219.02 95.9009 219.02 95.621 219.02 95.321C219.02 95.0211 219.02 94.6411 219.02 94.3612C219.002 94.0615 219.002 93.761 219.02 93.4614C219.061 93.1824 219.128 92.9079 219.221 92.6415C219.31 92.4225 219.424 92.2145 219.561 92.0216C219.674 91.8307 219.841 91.6776 220.041 91.5817C220.253 91.477 220.486 91.4223 220.722 91.4218C220.993 91.4147 221.262 91.4766 221.503 91.6017C221.704 91.7059 221.871 91.8655 221.983 92.0616C222.1 92.2596 222.181 92.476 222.224 92.7015C222.255 92.9538 222.255 93.2091 222.224 93.4614H223.465C223.497 92.6471 223.242 91.8475 222.744 91.2018C222.495 90.9178 222.187 90.6918 221.841 90.5398C221.495 90.3877 221.12 90.3134 220.742 90.322C218.6 90.322 217.519 91.9816 217.519 95.321C217.519 95.7009 217.519 96.0409 217.519 96.3408L217.679 96.4208ZM212.634 91.6617V99.8201H213.955V91.6617H216.378V90.5619H210.211V91.6617H212.634ZM203.324 96.3408C203.347 96.6627 203.387 96.9831 203.444 97.3006C203.496 97.6075 203.576 97.9089 203.685 98.2005C203.786 98.4693 203.921 98.7245 204.085 98.9603C204.234 99.1988 204.432 99.4032 204.666 99.5602C204.91 99.73 205.18 99.8584 205.467 99.9401C205.82 100.031 206.183 100.078 206.548 100.08C206.999 100.088 207.446 99.9849 207.849 99.7802C208.203 99.5956 208.5 99.3193 208.71 98.9803C208.924 98.6399 209.086 98.2692 209.19 97.8805C209.29 97.4613 209.337 97.0315 209.33 96.6008H208.089C208.089 96.7807 208.089 96.9607 208.089 97.0807C208.089 97.2007 208.089 97.3806 208.089 97.5606C208.057 97.7092 208.017 97.8561 207.969 98.0005C207.91 98.1311 207.843 98.258 207.769 98.3804C207.697 98.504 207.602 98.6126 207.489 98.7004C207.367 98.784 207.231 98.845 207.088 98.8803C206.909 98.9121 206.726 98.9121 206.548 98.8803C206.305 98.8822 206.065 98.8274 205.847 98.7204C205.636 98.6225 205.462 98.4618 205.346 98.2604C205.23 98.062 205.13 97.8547 205.046 97.6406C204.956 97.3815 204.896 97.1132 204.866 96.8407C204.866 96.5208 204.866 96.2608 204.866 96.0409C204.866 95.8209 204.866 95.541 204.866 95.241C204.866 94.9411 204.866 94.5612 204.866 94.2812C204.866 94.0013 204.866 93.7013 204.866 93.3814C204.923 92.867 205.101 92.3735 205.386 91.9417C205.512 91.7541 205.685 91.6025 205.887 91.5017C206.111 91.3907 206.358 91.333 206.608 91.333C206.858 91.333 207.104 91.3907 207.328 91.5017C207.535 91.6055 207.708 91.7648 207.829 91.9617C207.938 92.1629 208.019 92.3782 208.069 92.6015C208.101 92.8538 208.101 93.1091 208.069 93.3614H209.31C209.346 92.5434 209.083 91.7405 208.57 91.1018C208.323 90.8156 208.015 90.5881 207.668 90.4359C207.322 90.2837 206.946 90.2106 206.568 90.222C204.425 90.222 203.344 91.8817 203.344 95.221C203.344 95.601 203.344 95.9409 203.344 96.2408L203.324 96.3408ZM196.698 99.7202L199.761 92.7015C199.915 92.3322 200.01 91.9407 200.041 91.5417C199.972 91.9253 199.925 92.3125 199.901 92.7015V99.7202H201.242V90.5619H199.621L196.557 97.6006C196.437 97.9665 196.343 98.3407 196.277 98.7204C196.365 98.3533 196.412 97.9778 196.417 97.6006V90.5619H195.096V99.8201L196.698 99.7202ZM188.089 94.2212C188.089 93.9813 188.089 93.7013 188.089 93.4014C188.099 93.126 188.16 92.8548 188.269 92.6015C188.357 92.386 188.465 92.1786 188.589 91.9817C188.702 91.7855 188.869 91.6259 189.07 91.5217C189.281 91.4149 189.514 91.3601 189.75 91.3618C190.972 91.3618 191.592 92.5815 191.592 94.9811C191.627 95.5404 191.627 96.1014 191.592 96.6608C191.542 97.078 191.441 97.4876 191.292 97.8805C191.185 98.1838 190.99 98.4483 190.731 98.6404C190.483 98.8234 190.179 98.9152 189.871 98.9003C189.658 98.903 189.446 98.8622 189.25 98.7804C189.074 98.7096 188.917 98.6002 188.789 98.4604C188.624 98.3299 188.488 98.1664 188.389 97.9805C188.301 97.7861 188.228 97.5856 188.169 97.3806C188.154 97.1409 188.154 96.9005 188.169 96.6608C188.151 96.4078 188.151 96.1539 188.169 95.9009V95.181C188.169 94.8611 188.169 94.5812 188.169 94.3212L188.089 94.2212ZM188.169 103.06V98.8603C188.392 99.2153 188.685 99.5214 189.03 99.7602C189.369 99.9794 189.767 100.091 190.171 100.08C190.68 100.092 191.182 99.9526 191.612 99.6802C192.018 99.423 192.333 99.0454 192.513 98.6004C192.742 98.097 192.903 97.5659 192.994 97.0207C193.087 96.3582 193.134 95.6901 193.134 95.0211C193.134 91.8817 192.113 90.302 190.071 90.302C189.692 90.3127 189.324 90.4306 189.01 90.6419C188.652 90.8704 188.367 91.1965 188.189 91.5817V90.5419H186.867V103.04L188.169 103.06ZM181.322 99.9801C181.322 100.28 181.142 100.52 181.062 100.74C180.978 100.945 180.871 101.14 180.741 101.32C180.634 101.498 180.48 101.644 180.297 101.742C180.114 101.841 179.908 101.888 179.7 101.88C179.361 101.876 179.027 101.801 178.719 101.66V102.82C179.021 102.927 179.339 102.982 179.66 102.98H180.221L180.701 102.84C180.845 102.779 180.98 102.698 181.102 102.6C181.224 102.51 181.337 102.409 181.442 102.3C181.549 102.177 181.643 102.043 181.722 101.9L181.942 101.48C182.023 101.326 182.09 101.166 182.143 101L182.343 100.48L182.503 99.9201L185.386 90.6019H184.005L182.002 98.0005L179.82 90.6019H178.379L181.322 99.9801ZM173.874 91.6617V99.8201H175.196V91.6617H177.598V90.5619H171.432V91.6617H173.874ZM161.261 99.8201L164.344 92.8015C164.479 92.4259 164.573 92.0372 164.625 91.6417C164.545 92.0237 164.498 92.4116 164.485 92.8015V99.8201H165.806V90.5619H164.164L161.081 97.6006C160.97 97.9678 160.883 98.3418 160.821 98.7204C160.893 98.3513 160.933 97.9766 160.941 97.6006V90.5619H159.62V99.8201H161.261Z" fill="white"/>
<path d="M327.452 72.3656C327.848 72.7157 328.366 72.8955 328.893 72.8655C329.452 72.8947 330.001 72.7167 330.435 72.3656C330.645 72.1661 330.81 71.9232 330.917 71.6539C331.024 71.3846 331.072 71.0953 331.056 70.8059H330.335C330.294 71.1555 330.122 71.4768 329.854 71.7057C329.58 71.8975 329.248 71.9893 328.913 71.9657C328.569 71.9995 328.225 71.8969 327.955 71.68C327.686 71.4631 327.512 71.1493 327.472 70.8059H326.811C326.799 71.0931 326.846 71.3797 326.95 71.648C327.053 71.9163 327.21 72.1605 327.412 72.3656H327.452ZM327.412 83.0835L330.515 75.9849C330.648 75.6169 330.735 75.2342 330.775 74.8451C330.709 75.2219 330.669 75.6027 330.655 75.9849V83.0235H331.977V73.8053H330.335L327.252 80.864C327.127 81.2219 327.034 81.5899 326.972 81.9637C327.059 81.6035 327.106 81.2346 327.112 80.864V73.8053H325.79V83.0835H327.412ZM318.923 75.565C319.056 75.2843 319.27 75.0501 319.538 74.8931C319.806 74.7361 320.115 74.6636 320.425 74.6851C320.733 74.6591 321.041 74.73 321.307 74.8877C321.572 75.0455 321.782 75.2823 321.906 75.565C322.274 76.5131 322.431 77.5297 322.367 78.5444C322.386 79.0247 322.373 79.5057 322.327 79.9841C322.29 80.3758 322.195 80.7598 322.046 81.1239C321.932 81.4344 321.722 81.7005 321.446 81.8838C321.16 82.0677 320.824 82.1585 320.485 82.1437C320.152 82.1583 319.822 82.0673 319.544 81.8838C319.268 81.7005 319.058 81.4344 318.943 81.1239C318.789 80.7588 318.682 80.3759 318.623 79.9841C318.589 79.4848 318.589 78.9837 318.623 78.4844C318.554 77.4712 318.704 76.4551 319.063 75.505L318.923 75.565ZM317.382 80.3241C317.475 80.8059 317.622 81.2755 317.822 81.7238C318 82.0632 318.237 82.368 318.523 82.6236C318.79 82.8548 319.104 83.0254 319.444 83.1235C319.81 83.2158 320.187 83.2628 320.565 83.2635C321.036 83.2721 321.505 83.1906 321.946 83.0235C322.354 82.8558 322.712 82.5875 322.987 82.2437C323.32 81.7939 323.546 81.2741 323.648 80.724C323.822 79.9498 323.902 79.1577 323.888 78.3644C323.888 75.1251 322.767 73.5054 320.565 73.5054C318.363 73.5054 317.242 75.1251 317.242 78.3444C317.231 79.0137 317.278 79.6827 317.382 80.3441V80.3241ZM310.555 83.0435V78.7444H313.838V83.0835H315.159V73.8053H313.838V77.6446H310.555V73.8053H309.233V83.0835L310.555 83.0435ZM302.747 74.8851H304.188C304.57 74.8485 304.951 74.9634 305.249 75.205C305.376 75.3364 305.473 75.4941 305.531 75.667C305.59 75.8398 305.61 76.0235 305.59 76.2049C305.611 76.3955 305.592 76.5885 305.533 76.7711C305.474 76.9538 305.378 77.122 305.249 77.2646C304.932 77.5153 304.531 77.6368 304.128 77.6046H302.747V74.8851ZM302.747 78.7044H304.268C305.309 78.7044 305.81 79.2443 305.81 80.3041C305.852 80.742 305.738 81.1807 305.489 81.5438C305.328 81.6892 305.137 81.7983 304.93 81.8638C304.723 81.9293 304.504 81.9498 304.288 81.9238H302.747V78.7044ZM304.849 83.0435C305.153 83.0475 305.455 82.9872 305.734 82.8666C306.014 82.746 306.265 82.5678 306.471 82.3437C306.697 82.1001 306.872 81.8135 306.986 81.5009C307.099 81.1883 307.149 80.8561 307.131 80.524C307.156 79.9795 307.009 79.4408 306.711 78.9843C306.401 78.5965 305.972 78.3222 305.489 78.2045C305.915 78.0815 306.284 77.8124 306.531 77.4446C306.801 77.0073 306.934 76.4986 306.911 75.9849C306.923 75.6827 306.866 75.3817 306.745 75.1046C306.623 74.8275 306.441 74.5816 306.21 74.3852C305.707 73.9787 305.075 73.7658 304.428 73.7853H301.405V83.0635L304.849 83.0435ZM294.438 83.0435L297.401 75.9849C297.534 75.6157 297.628 75.2337 297.682 74.8451C297.616 75.2219 297.575 75.6027 297.561 75.9849V83.0235H298.883V73.8053H297.281L294.298 80.864C294.174 81.2219 294.08 81.5899 294.018 81.9637C294.105 81.6035 294.152 81.2346 294.158 80.864V73.8053H292.837V83.0835L294.438 83.0435ZM287.651 74.8851V83.0435H288.973V74.9251H291.395V73.8053H285.229V74.9251L287.651 74.8851ZM279.183 77.5446C279.183 77.2846 279.183 77.0047 279.183 76.7048C279.203 76.4307 279.263 76.1612 279.363 75.9049C279.442 75.6826 279.543 75.4684 279.663 75.265C279.77 75.0642 279.938 74.903 280.144 74.8051C280.358 74.6891 280.6 74.6338 280.844 74.6452C282.045 74.6452 282.666 75.8449 282.666 78.2445C282.702 78.8038 282.702 79.3648 282.666 79.9241C282.616 80.3414 282.515 80.751 282.366 81.1439C282.254 81.4502 282.06 81.72 281.805 81.9238C281.55 82.0916 281.249 82.1755 280.944 82.1637C280.731 82.1664 280.52 82.1256 280.324 82.0437C280.153 81.9725 279.997 81.8709 279.863 81.7438C279.732 81.5907 279.63 81.4144 279.563 81.2239C279.47 81.0338 279.402 80.832 279.363 80.624C279.297 80.3891 279.256 80.1477 279.243 79.9041C279.243 79.6242 279.243 79.3842 279.243 79.1643V78.3844C279.243 78.0645 279.243 77.7845 279.243 77.5446H279.183ZM279.243 86.2629V82.1237C279.466 82.4787 279.759 82.7848 280.104 83.0235C280.445 83.2358 280.843 83.3403 281.245 83.3235C281.751 83.3312 282.25 83.1997 282.686 82.9436C283.088 82.6735 283.402 82.2909 283.587 81.8438C283.815 81.3404 283.977 80.8093 284.068 80.2641C284.162 79.6017 284.208 78.9335 284.208 78.2645C284.208 75.1251 283.187 73.5454 281.145 73.5454C280.766 73.5561 280.398 73.674 280.083 73.8853C279.726 74.1138 279.441 74.4399 279.263 74.8251V73.7853H277.941V86.2829L279.243 86.2629ZM271.014 75.525C271.148 75.2409 271.365 75.0044 271.637 74.8472C271.909 74.6899 272.223 74.6194 272.536 74.6452C272.843 74.625 273.149 74.6983 273.413 74.8553C273.678 75.0124 273.888 75.2459 274.017 75.525C274.376 76.4751 274.527 77.4912 274.458 78.5044C274.492 79.0037 274.492 79.5048 274.458 80.0041C274.405 80.395 274.304 80.7779 274.157 81.1439C274.043 81.4544 273.833 81.7205 273.557 81.9038C273.277 82.0849 272.949 82.1757 272.616 82.1637C272.276 82.1785 271.941 82.0877 271.655 81.9038C271.39 81.7093 271.182 81.4467 271.054 81.1439C270.907 80.7779 270.806 80.395 270.754 80.0041C270.719 79.5048 270.719 79.0037 270.754 78.5044C270.695 77.4916 270.845 76.4776 271.194 75.525H271.014ZM269.533 80.3441C269.616 80.8282 269.764 81.299 269.973 81.7438C270.144 82.0877 270.382 82.3937 270.674 82.6436C270.941 82.8749 271.255 83.0454 271.595 83.1435C271.961 83.2358 272.338 83.2828 272.716 83.2835C273.187 83.2921 273.656 83.2106 274.097 83.0435C274.496 82.8701 274.846 82.6024 275.118 82.2637C275.458 81.8154 275.691 81.2956 275.799 80.744C275.966 79.969 276.04 79.1769 276.019 78.3844C276.019 75.1451 274.918 73.5254 272.716 73.5254C270.494 73.5254 269.373 75.1451 269.373 78.3644C269.368 79.0343 269.422 79.7033 269.533 80.364V80.3441ZM262.265 83.0835V74.9251H265.549V83.0835H266.87V73.8053H260.864V83.0835H262.265ZM253.096 79.5842C253.117 79.9128 253.157 80.2399 253.216 80.564C253.27 80.8639 253.35 81.1583 253.456 81.4438C253.555 81.7103 253.682 81.9652 253.837 82.2037C253.999 82.4319 254.194 82.6342 254.417 82.8036C254.671 82.9696 254.947 83.0976 255.238 83.1835C255.583 83.283 255.94 83.3301 256.299 83.3235C256.751 83.3355 257.199 83.2323 257.6 83.0235C257.958 82.8466 258.262 82.5774 258.481 82.2437C258.687 81.9013 258.843 81.5309 258.942 81.1439C259.047 80.7186 259.101 80.2822 259.102 79.8442H257.861C257.861 80.0441 257.861 80.2041 257.861 80.3441C257.861 80.484 257.861 80.624 257.861 80.804C257.847 80.963 257.807 81.1185 257.741 81.2639C257.693 81.3961 257.633 81.5234 257.56 81.6438C257.483 81.7576 257.388 81.8587 257.28 81.9437C257.155 82.0262 257.021 82.0934 256.88 82.1437C256.7 82.1655 256.519 82.1655 256.339 82.1437C256.092 82.1494 255.846 82.1016 255.618 82.0037C255.417 81.8915 255.25 81.7253 255.138 81.5238C255.004 81.3325 254.896 81.124 254.818 80.9039C254.745 80.6416 254.691 80.3742 254.657 80.1041C254.64 79.8378 254.64 79.5706 254.657 79.3043C254.657 79.0843 254.657 78.8243 254.657 78.5044C254.657 78.1845 254.657 77.8445 254.657 77.5446C254.673 77.243 254.707 76.9425 254.758 76.6448C254.786 76.37 254.853 76.1007 254.958 75.8449C255.04 75.6203 255.148 75.4056 255.278 75.205C255.399 75.0135 255.573 74.8607 255.779 74.7651C255.991 74.6652 256.224 74.6173 256.459 74.6252C256.722 74.6219 256.981 74.6765 257.22 74.7851C257.428 74.8961 257.601 75.0621 257.721 75.265C257.824 75.4686 257.905 75.6833 257.961 75.9049C257.984 76.151 257.984 76.3987 257.961 76.6448H259.202C259.238 75.8328 258.974 75.036 258.461 74.4052C258.217 74.1142 257.91 73.8822 257.563 73.7263C257.217 73.5705 256.839 73.495 256.459 73.5054C254.317 73.5054 253.256 75.185 253.256 78.5044C253.256 78.8843 253.256 79.2243 253.256 79.5242L253.096 79.5842ZM244.227 74.8651V83.0235H245.548V74.9251H247.971V73.8053H241.804V74.9251L244.227 74.8651ZM235.738 83.0235V78.7444H239.021V83.0835H240.243V73.8053H238.921V77.6446H235.638V73.8053H234.237V83.0835L235.738 83.0235ZM227.85 77.0247C227.85 76.8247 227.85 76.6248 227.85 76.3848C227.883 76.1649 227.944 75.95 228.03 75.7449C228.096 75.558 228.19 75.3825 228.31 75.225C228.423 75.0637 228.575 74.9331 228.751 74.8451C228.947 74.7616 229.158 74.7207 229.372 74.7251C229.605 74.7174 229.835 74.7801 230.032 74.9051C230.212 75.0146 230.363 75.1654 230.473 75.345C230.593 75.5644 230.681 75.8001 230.733 76.0449C230.792 76.3015 230.833 76.5621 230.853 76.8247C230.853 77.0847 230.853 77.3646 230.853 77.6846H227.73C227.73 77.4446 227.73 77.2247 227.73 77.0247H227.85ZM226.529 80.804C226.628 81.3479 226.839 81.8654 227.149 82.3237C227.405 82.6597 227.733 82.9332 228.11 83.1235C228.523 83.2931 228.966 83.3748 229.412 83.3635C229.795 83.3705 230.175 83.2895 230.522 83.1265C230.869 82.9635 231.174 82.7231 231.414 82.4237C231.949 81.723 232.237 80.8654 232.234 79.9841H230.913C230.913 81.4638 230.413 82.2037 229.412 82.2037C229.194 82.2484 228.969 82.2484 228.751 82.2037C228.569 82.1452 228.409 82.0338 228.29 81.8838C228.172 81.7291 228.071 81.5614 227.99 81.3839C227.907 81.1584 227.853 80.9232 227.83 80.684C227.83 80.404 227.83 80.1241 227.83 79.8442C227.83 79.5642 227.83 79.2643 227.83 78.8443H232.234C232.234 78.3844 232.234 77.9845 232.234 77.6046C232.234 77.2247 232.234 76.8647 232.114 76.4248C232.046 76.0503 231.945 75.6824 231.814 75.325C231.672 75.0269 231.497 74.7453 231.293 74.4852C231.082 74.2207 230.806 74.0143 230.493 73.8853C230.138 73.7359 229.756 73.661 229.372 73.6653C227.369 73.6653 226.388 75.285 226.388 78.5244C226.383 79.3087 226.45 80.0919 226.589 80.864L226.529 80.804ZM217.479 83.1835V74.9251L219.802 83.0835H220.683L223.045 74.9251V83.0835H224.226V73.8053H222.224L220.522 79.9841C220.474 80.1541 220.44 80.3281 220.422 80.504C220.422 80.704 220.382 80.9439 220.302 81.2239C220.302 81.5038 220.302 81.7238 220.302 81.8438C220.122 80.764 220.002 80.1241 219.962 79.9641L218.22 73.8053H216.218V83.0835L217.479 83.1835ZM205.307 83.1835L207.609 78.5644L208.61 79.8841V83.1835H209.932V79.7842L210.933 78.4644L213.255 83.0835H214.797L211.854 77.4246L214.717 73.8053H213.155L209.932 78.1245V73.8053H208.61V78.1245L205.407 73.8053H203.845L206.708 77.4246L203.745 83.0835L205.307 83.1835ZM198.2 79.8442C198.357 79.1016 198.431 78.3436 198.42 77.5846V74.9251H200.922V81.9837H197.459C197.789 81.3027 198.057 80.5933 198.26 79.8641L198.2 79.8442ZM195.317 85.583H196.498V83.0835H201.963V85.583H203.205V81.9837H202.304V73.8053H197.199V76.8647C197.22 77.7839 197.139 78.7027 196.958 79.6042C196.796 80.4238 196.541 81.2221 196.198 81.9837H195.397L195.317 85.583ZM189.631 76.9847C189.631 76.7847 189.631 76.5848 189.631 76.3448C189.664 76.1249 189.725 75.91 189.811 75.705C189.907 75.5111 190.036 75.3352 190.191 75.185C190.304 75.0237 190.456 74.8931 190.632 74.8051C190.828 74.7216 191.039 74.6807 191.252 74.6851C191.486 74.6774 191.716 74.7402 191.913 74.8651C192.093 74.9746 192.244 75.1254 192.354 75.305C192.465 75.5283 192.553 75.7629 192.614 76.0049C192.673 76.2615 192.714 76.5222 192.734 76.7847C192.734 77.0447 192.734 77.3246 192.734 77.6446H189.611C189.611 77.4046 189.611 77.1847 189.611 76.9847H189.631ZM188.41 80.764C188.509 81.308 188.72 81.8254 189.03 82.2837C189.286 82.6197 189.614 82.8932 189.991 83.0835C190.404 83.2531 190.847 83.3348 191.293 83.3235C191.677 83.3352 192.058 83.2562 192.406 83.0929C192.754 82.9296 193.058 82.6866 193.295 82.3837C193.858 81.7088 194.176 80.8628 194.195 79.9841H192.794C192.794 81.4638 192.294 82.2037 191.293 82.2037C191.075 82.2484 190.85 82.2484 190.632 82.2037C190.443 82.1151 190.289 81.9677 190.191 81.7838C190.073 81.6291 189.972 81.4614 189.891 81.2839C189.808 81.0584 189.754 80.8232 189.731 80.584C189.731 80.3041 189.731 80.0241 189.731 79.7442C189.731 79.4642 189.731 79.1643 189.731 78.7444H194.195C194.195 78.2845 194.195 77.8845 194.195 77.5046C194.195 77.1247 194.195 76.7647 194.075 76.3248C194.007 75.9503 193.906 75.5824 193.775 75.225C193.633 74.9269 193.458 74.6453 193.255 74.3852C193.043 74.1207 192.767 73.9143 192.454 73.7853C192.099 73.6359 191.717 73.561 191.333 73.5654C189.331 73.5654 188.35 75.1851 188.35 78.4244C188.344 79.2088 188.411 79.9919 188.55 80.764H188.41ZM181.663 83.0835V78.7444H184.946V83.0835H186.187V73.8053H184.866V77.6446H181.543V73.8053H180.181V83.0835H181.663ZM173.795 77.0847C173.795 76.8847 173.795 76.6848 173.795 76.4448C173.822 76.2258 173.876 76.0109 173.955 75.8049C174.012 75.593 174.086 75.3858 174.175 75.185C174.295 75.0229 174.453 74.8924 174.635 74.8051C174.831 74.7216 175.043 74.6807 175.256 74.6851C175.489 74.6831 175.717 74.7454 175.917 74.8651C176.092 74.9803 176.242 75.13 176.357 75.305C176.47 75.5257 176.551 75.7614 176.597 76.0049C176.657 76.2615 176.697 76.5222 176.718 76.7847C176.718 77.0447 176.718 77.3246 176.718 77.6446H173.654C173.654 77.4046 173.654 77.1847 173.654 76.9847L173.795 77.0847ZM172.453 80.764C172.553 81.308 172.764 81.8254 173.074 82.2837C173.32 82.6285 173.651 82.904 174.035 83.0835C174.447 83.2531 174.89 83.3348 175.336 83.3235C175.72 83.3352 176.102 83.2562 176.45 83.0929C176.798 82.9296 177.102 82.6866 177.338 82.3837C177.88 81.7009 178.177 80.8556 178.179 79.9841H176.838C176.838 81.4638 176.337 82.2037 175.336 82.2037C175.118 82.2453 174.894 82.2453 174.675 82.2037C174.469 82.1198 174.293 81.9729 174.175 81.7838C174.07 81.6241 173.976 81.457 173.895 81.2839C173.804 81.0596 173.743 80.8243 173.715 80.584C173.715 80.3041 173.715 80.0241 173.715 79.7442C173.715 79.4642 173.715 79.1643 173.715 78.7444H178.179C178.179 78.2845 178.179 77.8845 178.179 77.5046C178.157 77.1088 178.111 76.7147 178.039 76.3248C177.989 75.9463 177.888 75.5763 177.739 75.225C177.603 74.9275 177.435 74.6459 177.238 74.3852C177.022 74.1254 176.748 73.92 176.437 73.7853C176.083 73.6359 175.701 73.561 175.316 73.5654C173.314 73.5654 172.333 75.1851 172.333 78.4244C172.318 79.2091 172.385 79.9933 172.533 80.764H172.453ZM161.102 83.0835V72.8255C161.102 72.6455 161.102 72.4056 161.102 72.0657C161.102 71.7257 161.102 71.4458 161.102 71.2058L161.322 72.1256C161.322 72.4656 161.462 72.6655 161.482 72.7255L164.085 83.0835H165.726L168.329 72.8655C168.329 72.7455 168.389 72.5056 168.509 72.1456C168.509 71.7857 168.689 71.4658 168.749 71.2058C168.749 71.3658 168.749 71.6057 168.749 71.9857C168.749 72.3656 168.749 72.6056 168.749 72.7855V83.0835H170.171V70.5859H167.648L165.186 80.3241C165.13 80.488 165.083 80.6549 165.046 80.824C165.046 81.0039 165.046 81.1439 165.046 81.2639C165.059 81.4169 165.059 81.5708 165.046 81.7238C165.046 81.9437 165.046 82.0837 165.046 82.1837C165.002 81.5597 164.922 80.9387 164.805 80.3241L162.163 70.5859H159.66V83.0835H161.102Z" fill="white"/>
<path d="M20.6554 43.8506C22.9727 43.8545 25.2391 43.1718 27.1677 41.8889C29.0964 40.6059 30.6007 38.7804 31.4902 36.6432C32.3797 34.5061 32.6145 32.1534 32.1649 29.883C31.7152 27.6125 30.6013 25.5263 28.9642 23.8884C27.327 22.2504 25.2402 21.1343 22.9677 20.6813C20.6953 20.2283 18.3394 20.4588 16.1981 21.3436C14.0569 22.2284 12.2265 23.7277 10.9387 25.6518C9.65088 27.5759 8.96347 29.8384 8.96347 32.1528C8.96347 35.2518 10.1947 38.2241 12.3868 40.4173C14.5789 42.6105 17.5527 43.8453 20.6554 43.8506Z" fill="white"/>
<path d="M-0.00526823 45.9922H0.295039L16.0111 51.3712V91.9833C16.0111 97.6422 17.3125 98.882 20.0152 99.4819V99.7618H6.9018C5.96395 99.7334 5.04095 99.5203 4.18574 99.1348C3.33054 98.7493 2.55997 98.1989 1.91824 97.5152C1.27651 96.8315 0.776253 96.028 0.44617 95.1508C0.116086 94.2735 -0.0373269 93.3398 -0.00526823 92.4032" fill="white"/>
<path d="M114.447 91.9823H114.107L98.3106 82.6441V15.757C98.3106 9.75812 98.5509 3.29937 95.708 0.439915L96.0884 0L110.223 8.73832C114.227 11.3978 114.467 16.8968 114.467 21.8158" fill="white"/>
<path d="M135.356 103.98H135.056L119.28 94.6222V27.775C119.28 21.7762 119.52 15.3174 116.677 12.458L116.977 11.998L131.092 20.7364C135.096 23.3959 135.356 28.8948 135.356 33.8139" fill="white"/>
<path d="M88.084 0.439915L87.8438 0L73.7093 8.73832C69.7052 11.3978 69.445 16.8967 69.445 21.8158V54.1296C69.445 60.1284 68.2838 63.9477 64.2596 67.767L37.8326 91.4224C37.0237 92.1158 36.5026 93.0854 36.3711 94.1419H36.0307V87.9831C36.0307 87.9831 54.4095 71.9861 58.8541 67.347C63.8592 62.328 64.58 57.069 64.58 49.5305V27.7747C64.58 21.7758 64.3397 15.3171 67.1826 12.4576L66.9424 11.9977L52.8079 20.736C48.8038 23.3955 48.5636 28.8944 48.5636 33.8135V56.7091C48.5636 62.368 47.2622 64.7076 44.5595 67.2471L37.7525 73.0459C36.9715 73.7393 36.4668 74.6906 36.331 75.7254H36.0307V58.3488L21.1755 52.9898H20.8752V92.3822C20.8404 93.3205 20.9919 94.2563 21.3207 95.1358C21.6496 96.0154 22.1494 96.8213 22.7914 97.5071C23.4334 98.1929 24.2049 98.7451 25.0614 99.1319C25.918 99.5187 26.8427 99.7324 27.7823 99.7608H36.0307C40.2937 99.4913 44.3727 97.9286 47.7227 95.2817C51.3865 92.6822 75.4511 72.0861 79.235 68.4268C81.3817 66.545 83.0734 64.2017 84.1831 61.573C85.2927 58.9443 85.7913 56.0986 85.6415 53.2498V15.757C85.6415 9.75812 85.4013 3.29937 88.2242 0.439915" fill="white"/>
</g>
<defs>
<clipPath id="clip0">
<rect width="332" height="104" fill="white"/>
</clipPath>
</defs>
</svg>
