<svg width="30" height="30" viewBox="0 0 30 30" fill="none" xmlns="http://www.w3.org/2000/svg">
<circle cx="15" cy="15" r="15" fill="#F93A04"/>
<path d="M20.1624 15.6712C19.9094 15.3516 19.9818 15.2095 20.1624 14.9238C20.1657 14.9205 22.2547 12.034 22.4699 11.0551L22.4712 11.0545C22.5781 10.6977 22.4712 10.4355 21.954 10.4355H20.2426C19.807 10.4355 19.6061 10.6605 19.4985 10.9123C19.4985 10.9123 18.6271 12.9979 17.3945 14.3499C16.9967 14.7405 16.8127 14.8658 16.5956 14.8658C16.4886 14.8658 16.3223 14.7405 16.3223 14.3838V11.0545C16.3223 10.6266 16.2003 10.4355 15.8397 10.4355H13.1487C12.8754 10.4355 12.713 10.6351 12.713 10.821C12.713 11.2266 13.3294 11.3199 13.3933 12.4612V14.9375C13.3933 15.4801 13.2948 15.5799 13.0763 15.5799C12.4945 15.5799 11.0825 13.4858 10.2458 11.089C10.0768 10.624 9.91184 10.4362 9.47291 10.4362H7.7609C7.2724 10.4362 7.17392 10.6612 7.17392 10.9129C7.17392 11.3577 7.75568 13.5692 9.87923 16.491C11.2945 18.4853 13.2876 19.566 15.1007 19.566C16.1905 19.566 16.3236 19.326 16.3236 18.9132C16.3236 17.0075 16.2251 16.8275 16.771 16.8275C17.024 16.8275 17.4597 16.9527 18.4771 17.9147C19.64 19.0553 19.8311 19.566 20.482 19.566H22.1934C22.6812 19.566 22.9284 19.326 22.7862 18.8525C22.4608 17.8566 20.2615 15.8082 20.1624 15.6712Z" fill="white"/>
</svg>
