<svg width="30" height="30" viewBox="0 0 30 30" fill="none" xmlns="http://www.w3.org/2000/svg">
<circle cx="15" cy="15" r="15" fill="#E52328"/>
<path d="M20.1624 15.6702C19.9093 15.3507 19.9817 15.2085 20.1624 14.9228C20.1656 14.9196 22.2546 12.033 22.4699 11.0541L22.4712 11.0535C22.5781 10.6967 22.4712 10.4346 21.954 10.4346H20.2426C19.8069 10.4346 19.6061 10.6596 19.4984 10.9113C19.4984 10.9113 18.6271 12.997 17.3945 14.3489C16.9966 14.7396 16.8127 14.8648 16.5955 14.8648C16.4886 14.8648 16.3223 14.7396 16.3223 14.3828V11.0535C16.3223 10.6257 16.2003 10.4346 15.8396 10.4346H13.1487C12.8754 10.4346 12.713 10.6341 12.713 10.82C12.713 11.2257 13.3293 11.3189 13.3932 12.4602V14.9365C13.3932 15.4791 13.2948 15.5789 13.0763 15.5789C12.4945 15.5789 11.0825 13.4848 10.2457 11.088C10.0768 10.623 9.91181 10.4352 9.47288 10.4352H7.76087C7.27237 10.4352 7.17389 10.6602 7.17389 10.912C7.17389 11.3567 7.75565 13.5683 9.8792 16.49C11.2945 18.4844 13.2876 19.565 15.1007 19.565C16.1905 19.565 16.3236 19.325 16.3236 18.9122C16.3236 17.0065 16.2251 16.8265 16.771 16.8265C17.024 16.8265 17.4597 16.9517 18.4771 17.9137C19.64 19.0544 19.8311 19.565 20.482 19.565H22.1933C22.6812 19.565 22.9283 19.325 22.7862 18.8515C22.4607 17.8557 20.2615 15.8072 20.1624 15.6702Z" fill="white"/>
</svg>
